<svg xmlns="http://www.w3.org/2000/svg" width="21.274" height="30.667" viewBox="0 0 21.274 30.667">
  <path id="Shape" d="M10.637,30.667h0A70.857,70.857,0,0,1,5.318,23.69C2.892,20.053,0,14.852,0,10.733A10.726,10.726,0,0,1,3.1,3.124,10.533,10.533,0,0,1,10.637,0a10.533,10.533,0,0,1,7.541,3.124,10.726,10.726,0,0,1,3.1,7.609c0,4.119-2.892,9.32-5.318,12.957a70.859,70.859,0,0,1-5.317,6.976Zm0-23.767a3.776,3.776,0,0,0-3.8,3.833,3.8,3.8,0,1,0,7.6,0A3.776,3.776,0,0,0,10.637,6.9Z" fill="#bfc4ce"/>
</svg>
