<svg xmlns="http://www.w3.org/2000/svg" width="71.335" height="71.335" viewBox="0 0 71.335 71.335">
  <g id="Group_18" data-name="Group 18" transform="translate(-298.184 -2399.669)">
    <path id="Path_458" data-name="Path 458" d="M43.657,8.031a.156.156,0,0,0-.072-.012.151.151,0,0,1,.071.012c6.44.475,12.084,6.107,15.577,14.5C55.74,14.138,50.1,8.506,43.656,8.031a.151.151,0,0,0-.071-.012H43.32C43.134,8.009,42.945,8,42.753,8s-.381.009-.567.019h-.265a.151.151,0,0,0-.071.012c-6.44.475-12.084,6.107-15.577,14.5,3.493-8.388,9.137-14.02,15.577-14.5a.151.151,0,0,1,.071-.012.151.151,0,0,0-.071.012,34.458,34.458,0,0,0,0,68.891.159.159,0,0,0,.071.012.144.144,0,0,1-.071-.012c-6.44-.475-12.084-6.107-15.577-14.5,3.493,8.389,9.137,14.021,15.577,14.5a.144.144,0,0,0,.071.012h.13c.226.012.464.024.7.024s.476-.012.7-.024h.131a.144.144,0,0,0,.071-.012c6.44-.475,12.084-6.107,15.577-14.5-3.493,8.389-9.137,14.021-15.577,14.5a.144.144,0,0,1-.071.012.158.158,0,0,0,.071-.012,34.458,34.458,0,0,0,0-68.891ZM69.5,20.744a31.926,31.926,0,0,1-5.834,3.327A31.926,31.926,0,0,0,69.5,20.744Zm-8.924,1.533a3.565,3.565,0,1,1-3.565,3.565A3.564,3.564,0,0,1,60.576,22.277Zm0,40.4a3.565,3.565,0,1,1,3.565-3.565A3.564,3.564,0,0,1,60.576,62.675Zm3.089-1.794A31.961,31.961,0,0,1,69.5,64.208,31.961,31.961,0,0,0,63.665,60.882Zm-.713-18.405a55.969,55.969,0,0,1-1.533,13.177,55.969,55.969,0,0,0,1.533-13.177H46.317a3.564,3.564,0,0,1-3.565,3.565V56.734a55.067,55.067,0,0,1,14.306,1.83,55.067,55.067,0,0,0-14.306-1.83,55.071,55.071,0,0,0-14.306,1.83,2.7,2.7,0,0,1,.048.547A3.519,3.519,0,0,1,26.273,62.4a3.391,3.391,0,0,1-1.343.273,3.541,3.541,0,0,1-3.089-1.794,31.965,31.965,0,0,0-5.834,3.327,31.965,31.965,0,0,1,5.834-3.327,3.586,3.586,0,0,1-.476-1.771,3.534,3.534,0,0,1,2.721-3.457,57.409,57.409,0,0,1,0-26.354,3.535,3.535,0,0,1-2.721-3.458,3.584,3.584,0,0,1,.476-1.77,31.93,31.93,0,0,1-5.834-3.327,31.93,31.93,0,0,0,5.834,3.327,3.542,3.542,0,0,1,3.089-1.794,3.391,3.391,0,0,1,1.343.273,3.52,3.52,0,0,1,2.221,3.291,2.7,2.7,0,0,1-.048.547,55.045,55.045,0,0,0,14.306,1.83,55.041,55.041,0,0,0,14.306-1.83,55.041,55.041,0,0,1-14.306,1.83V38.912a3.564,3.564,0,0,1,3.565,3.565H62.952A55.964,55.964,0,0,0,61.419,29.3,55.964,55.964,0,0,1,62.952,42.476Zm0,0" transform="translate(291.097 2392.857)" fill="#7ed63e"/>
    <path id="Path_459" data-name="Path 459" d="M120.918,240.125H104.284a55.97,55.97,0,0,0,1.533,13.177,3.365,3.365,0,0,1,.844-.107,3.548,3.548,0,0,1,3.517,3.018,55.071,55.071,0,0,1,14.306-1.83V243.69A3.564,3.564,0,0,1,120.918,240.125Zm0,0" transform="translate(209.367 2195.208)" fill="#7ed63e"/>
    <path id="Path_460" data-name="Path 460" d="M103.367,108.236a2.7,2.7,0,0,0,.048-.547,3.52,3.52,0,0,0-2.221-3.291,3.391,3.391,0,0,0-1.343-.273,3.542,3.542,0,0,0-3.089,1.794,3.584,3.584,0,0,0-.476,1.77,3.535,3.535,0,0,0,2.721,3.458,3.336,3.336,0,0,0,.844.107A3.547,3.547,0,0,0,103.367,108.236Zm0,0" transform="translate(216.177 2311.009)" fill="#f1f2f2"/>
    <path id="Path_461" data-name="Path 461" d="M236.267,472.149c-.237,0-.475-.012-.7-.024.226.012.464.024.7.024s.476-.012.7-.024C236.743,472.137,236.5,472.149,236.267,472.149Zm0,0" transform="translate(97.583 1997.666)" fill="#ffda44"/>
    <path id="Path_462" data-name="Path 462" d="M99.85,328.125a3.364,3.364,0,0,0-.844.107,3.534,3.534,0,0,0-2.721,3.457,3.586,3.586,0,0,0,.476,1.771,3.541,3.541,0,0,0,3.089,1.794,3.39,3.39,0,0,0,1.343-.273,3.519,3.519,0,0,0,2.221-3.291,2.7,2.7,0,0,0-.048-.547A3.548,3.548,0,0,0,99.85,328.125Zm0,0" transform="translate(216.177 2120.279)" fill="#f1f2f2"/>
    <path id="Path_463" data-name="Path 463" d="M124.483,144.329V133.635a55.044,55.044,0,0,1-14.306-1.83,3.547,3.547,0,0,1-3.517,3.018,3.336,3.336,0,0,1-.844-.107,55.965,55.965,0,0,0-1.533,13.177h16.635A3.565,3.565,0,0,1,124.483,144.329Zm0,0" transform="translate(209.367 2287.44)" fill="#7ed63e"/>
    <path id="Path_464" data-name="Path 464" d="M343.414,107.69a3.565,3.565,0,1,1-3.565-3.565A3.564,3.564,0,0,1,343.414,107.69Zm0,0" transform="translate(11.823 2311.009)" fill="#f1f2f2"/>
    <path id="Path_465" data-name="Path 465" d="M343.414,331.69a3.565,3.565,0,1,1-3.565-3.565A3.564,3.564,0,0,1,343.414,331.69Zm0,0" transform="translate(11.823 2120.279)" fill="#f1f2f2"/>
    <path id="Path_466" data-name="Path 466" d="M223.414,219.69a3.565,3.565,0,1,1-3.565-3.565A3.564,3.564,0,0,1,223.414,219.69Zm0,0" transform="translate(114 2215.644)" fill="#f1f2f2"/>
    <path id="Path_467" data-name="Path 467" d="M232.285,264.125h2.376v30.893h-2.376Zm0,0" transform="translate(100.377 2174.773)" fill="#5eac24"/>
    <path id="Path_468" data-name="Path 468" d="M232.285,8.125h2.376V39.018h-2.376Zm0,0" transform="translate(100.377 2392.751)" fill="#5eac24"/>
    <path id="Path_469" data-name="Path 469" d="M264.285,232.125h30.893V234.5H264.285Zm0,0" transform="translate(73.129 2202.02)" fill="#5eac24"/>
    <path id="Path_470" data-name="Path 470" d="M8.285,232.125H39.178V234.5H8.285Zm0,0" transform="translate(291.107 2202.02)" fill="#5eac24"/>
    <path id="Path_471" data-name="Path 471" d="M360.5,176.435l-2.31-.561a56.222,56.222,0,0,0,0-25.793l2.31-.56a58.611,58.611,0,0,1,0,26.915Zm0,0" transform="translate(-6.829 2272.356)" fill="#5eac24"/>
    <path id="Path_472" data-name="Path 472" d="M139.518,387.537c-.259,0-.517-.012-.761-.025l-.258-.016c-6.706-.509-12.741-6.06-16.558-15.221l2.194-.915c3.466,8.317,8.774,13.341,14.568,13.769l.119.008a13.287,13.287,0,0,0,1.341,0l.175-.009c5.794-.428,11.1-5.447,14.569-13.769l2.194.915c-3.778,9.069-9.725,14.594-16.347,15.209l-.047.019-.487.012C140.035,387.526,139.777,387.537,139.518,387.537Zm-.794-1.44.01.228.02-.288Zm0,0" transform="translate(194.332 2083.466)" fill="#5eac24"/>
    <path id="Path_473" data-name="Path 473" d="M97.85,176.435a58.589,58.589,0,0,1,0-26.915l2.31.56a56.2,56.2,0,0,0,0,25.793Zm0,0" transform="translate(216.179 2272.356)" fill="#5eac24"/>
    <path id="Path_474" data-name="Path 474" d="M154.9,16.177c-3.466-8.317-8.775-13.341-14.569-13.769l-.114-.015a13.265,13.265,0,0,0-1.341,0l-.175.01c-5.794.428-11.1,5.447-14.568,13.769l-2.194-.915C125.719,6.188,131.666.663,138.289.049L138.33.03l.487-.012a14.3,14.3,0,0,1,1.463,0l.258.017c6.706.509,12.741,6.06,16.557,15.221ZM140.3,1.206l-.02.289.03-.06Zm0,0" transform="translate(194.332 2399.67)" fill="#5eac24"/>
    <path id="Path_475" data-name="Path 475" d="M61.541,92.7a33.244,33.244,0,0,1-6.052-3.453l1.4-1.922a30.872,30.872,0,0,0,5.615,3.208Zm0,0" transform="translate(250.915 2325.311)" fill="#5eac24"/>
    <path id="Path_476" data-name="Path 476" d="M378.8,92.7l-.965-2.168a30.87,30.87,0,0,0,5.615-3.208l1.4,1.922A33.246,33.246,0,0,1,378.8,92.7Zm0,0" transform="translate(-23.56 2325.311)" fill="#5eac24"/>
    <path id="Path_477" data-name="Path 477" d="M156.5,128.25a56,56,0,0,1-14.614-1.871l.62-2.293a55.751,55.751,0,0,0,27.99.006l.62,2.293A55.978,55.978,0,0,1,156.5,128.25Zm0,0" transform="translate(177.348 2294.013)" fill="#5eac24"/>
    <path id="Path_478" data-name="Path 478" d="M56.89,362.109l-1.4-1.923a33.248,33.248,0,0,1,6.051-3.453l.965,2.172A30.841,30.841,0,0,0,56.89,362.109Zm0,0" transform="translate(250.915 2095.919)" fill="#5eac24"/>
    <path id="Path_479" data-name="Path 479" d="M170.491,332.287a55.651,55.651,0,0,0-27.992,0l-.62-2.293a58,58,0,0,1,29.231,0Zm0,0" transform="translate(177.355 2120.282)" fill="#5eac24"/>
    <path id="Path_480" data-name="Path 480" d="M383.455,362.083a30.832,30.832,0,0,0-5.615-3.208l.965-2.172a33.263,33.263,0,0,1,6.052,3.457Zm0,0" transform="translate(-23.56 2095.945)" fill="#5eac24"/>
    <path id="Path_481" data-name="Path 481" d="M333.038,105.631a4.753,4.753,0,1,1,4.753-4.753A4.753,4.753,0,0,1,333.038,105.631Zm0-7.129a2.376,2.376,0,1,0,2.376,2.376A2.376,2.376,0,0,0,333.038,98.5Zm0,0" transform="translate(18.635 2317.821)" fill="#4e901e"/>
    <path id="Path_482" data-name="Path 482" d="M333.038,329.631a4.753,4.753,0,1,1,4.753-4.753A4.753,4.753,0,0,1,333.038,329.631Zm0-7.129a2.376,2.376,0,1,0,2.376,2.376A2.376,2.376,0,0,0,333.038,322.5Zm0,0" transform="translate(18.635 2127.09)" fill="#4e901e"/>
    <path id="Path_483" data-name="Path 483" d="M213.038,217.631a4.753,4.753,0,1,1,4.753-4.753A4.753,4.753,0,0,1,213.038,217.631Zm0-7.129a2.376,2.376,0,1,0,2.376,2.376A2.376,2.376,0,0,0,213.038,210.5Zm0,0" transform="translate(120.812 2222.456)" fill="#4e901e"/>
    <path id="Path_484" data-name="Path 484" d="M94.979,96.5a4.542,4.542,0,0,0-1.811-.371,4.753,4.753,0,0,0-1.142,9.36,4.508,4.508,0,0,0,1.142.145,4.751,4.751,0,0,0,4.678-3.972v-.027a.057.057,0,0,1,.009-.036,3.918,3.918,0,0,0,.066-.718A4.666,4.666,0,0,0,94.979,96.5Zm.53,4.753a2.366,2.366,0,0,1-2.341,2.006,2.265,2.265,0,0,1-.571-.075,2.347,2.347,0,0,1-1.805-2.3,2.408,2.408,0,0,1,.321-1.188,2.376,2.376,0,0,1,4.432,1.188,1.481,1.481,0,0,1-.025.313Zm0,0" transform="translate(222.859 2317.821)" fill="#4e901e"/>
    <path id="Path_485" data-name="Path 485" d="M63.5,13.166A35.527,35.527,0,0,0,36.964.036L36.922.018h-.345a14.325,14.325,0,0,0-1.464,0L34.638.03l-.012.007a35.646,35.646,0,0,0,.044,71.255l.414.017c.237.012.487.025.736.025s.5-.013.7-.025L37,71.3,37,71.291A35.658,35.658,0,0,0,63.5,13.166ZM61.656,56.654A33.139,33.139,0,0,1,36.692,68.921h-.26l-.023.012a10.713,10.713,0,0,1-1.188,0l-.281-.016a33.269,33.269,0,0,1,0-66.515H35.2l.021-.008a11.276,11.276,0,0,1,1.188,0l.282.017A33.264,33.264,0,0,1,61.658,56.662Zm0,0" transform="translate(298.035 2399.67)" fill="#4e901e"/>
    <path id="Path_486" data-name="Path 486" d="M93.038,329.631a4.753,4.753,0,1,1,4.753-4.753A4.753,4.753,0,0,1,93.038,329.631Zm0-7.129a2.376,2.376,0,1,0,2.376,2.376A2.376,2.376,0,0,0,93.038,322.5Zm0,0" transform="translate(222.989 2127.09)" fill="#4e901e"/>
  </g>
</svg>
