<svg xmlns="http://www.w3.org/2000/svg" width="69.665" height="69.665" viewBox="0 0 69.665 69.665">
  <g id="Group_30" data-name="Group 30" transform="translate(-1283 -2401)">
    <g id="Group_28" data-name="Group 28" transform="translate(0.22 -0.411)">
      <circle id="Oval_2" data-name="Oval 2" cx="34.832" cy="34.832" r="34.832" transform="translate(1282.78 2401.411)" fill="#0264fb"/>
    </g>
    <g id="Group_29" data-name="Group 29" transform="translate(-1.002 0.368)">
      <path id="Shape" d="M6.532,0H0V11.448H6.532Z" transform="translate(1306.002 2434.427)" fill="#dfdfdf"/>
      <path id="Shape-2" data-name="Shape" d="M0,10.357V20.636l2.242.826c.96.343,2.049.72,3.106,1a21.56,21.56,0,0,0,3.17.594,22.051,22.051,0,0,0,3.072.158,4.246,4.246,0,0,0,1.795-.376,3.472,3.472,0,0,0,1.12-.876,3.069,3.069,0,0,0,.576-1.032,4.1,4.1,0,0,0,.128-.813,3.693,3.693,0,0,1,.161-.688,3.468,3.468,0,0,1,.223-.5l.321-.657a2.271,2.271,0,0,0,.192-.657,7.4,7.4,0,0,0,.031-.844,3.465,3.465,0,0,1,.064-.813,6.506,6.506,0,0,1,.289-.845l.223-.626a1.764,1.764,0,0,0,.129-.563,1.777,1.777,0,0,0-.129-.564,1.8,1.8,0,0,1-.128-.531,1.261,1.261,0,0,1,.16-.5,4.1,4.1,0,0,0,.289-.875,3.157,3.157,0,0,0,0-1.1,2.893,2.893,0,0,0-.417-1.095,2.969,2.969,0,0,0-.9-.876,3.079,3.079,0,0,0-1.506-.407c-.768-.062-1.92-.062-2.657-.094a4.222,4.222,0,0,1-1.216-.156c-.16-.063-.16-.125-.033-.375s.384-.688.577-1.157a5.684,5.684,0,0,0,.385-1.533,8.039,8.039,0,0,0,0-1.751,3.761,3.761,0,0,0-.448-1.5A2.6,2.6,0,0,0,9.637.348,4.065,4.065,0,0,0,7.845,0,1.416,1.416,0,0,0,6.66.6a4.448,4.448,0,0,0-.512,1.658,8.454,8.454,0,0,1-.769,2.6A15.049,15.049,0,0,1,3.2,7.824,13.419,13.419,0,0,1,1.265,9.608,7.7,7.7,0,0,1,0,10.357Z" transform="translate(1313.302 2424.632)" fill="#dfdfdf"/>
    </g>
  </g>
</svg>
