<svg xmlns="http://www.w3.org/2000/svg" width="69.665" height="69.665" viewBox="0 0 69.665 69.665">
  <g id="Group_25" data-name="Group 25" transform="translate(-1282.78 -2097.919)">
    <circle id="Oval_2" data-name="Oval 2" cx="34.832" cy="34.832" r="34.832" transform="translate(1282.78 2097.918)" fill="#ffda44"/>
    <path id="Path" d="M18.332,1.287,17.9,1.161a28.386,28.386,0,0,0-16.071,0l-.427.126A1.947,1.947,0,0,0,0,3.149V13.505a9.648,9.648,0,0,0,3.145,7.113h0a9.983,9.983,0,0,0,13.447,0h0a9.648,9.648,0,0,0,3.146-7.113V3.149A1.947,1.947,0,0,0,18.332,1.287Z" transform="translate(1308.324 2121.14)" fill="#006df0"/>
  </g>
</svg>
