<svg xmlns="http://www.w3.org/2000/svg" width="70.338" height="65.487" viewBox="0 0 70.338 65.487">
  <g id="Group_20" data-name="Group 20" transform="translate(-795.614 -2099.194)">
    <path id="Path_1044" data-name="Path 1044" d="M0,94.083H70.338V48H0ZM26.68,89.233ZM31.531,89.233ZM36.382,89.233ZM41.233,89.233ZM46.083,89.233ZM67.912,52.851ZM67.912,89.233ZM63.062,52.851ZM63.062,89.233ZM58.211,52.851ZM58.211,89.233ZM53.36,52.851ZM53.36,89.233ZM48.509,52.851ZM43.658,52.851ZM38.807,52.851ZM33.956,52.851ZM29.105,52.851ZM24.254,52.851ZM21.829,68.616H25.77a9.476,9.476,0,0,1,1.043-2.5l-2.789-2.789L27.456,59.9l2.789,2.789a9.476,9.476,0,0,1,2.5-1.043V57.7h4.851v3.941a9.476,9.476,0,0,1,2.5,1.043L42.882,59.9l3.432,3.432-2.789,2.789a9.476,9.476,0,0,1,1.043,2.5h3.941v4.851H44.568a9.476,9.476,0,0,1-1.043,2.5l2.789,2.789-3.432,3.432L40.093,79.4a9.476,9.476,0,0,1-2.5,1.043v3.941H32.744V80.44a9.476,9.476,0,0,1-2.5-1.043l-2.789,2.789-3.432-3.432,2.789-2.789a9.476,9.476,0,0,1-1.043-2.5H21.829ZM24.254,89.233ZM19.4,52.851ZM19.4,89.233ZM14.553,52.851ZM14.553,89.233ZM9.7,52.851ZM9.7,89.233ZM4.851,52.851ZM4.851,89.233Zm0,0" transform="translate(795.614 2058.47)" fill="#ffda44"/>
    <path id="Path_1045" data-name="Path 1045" d="M0,0V7.276H29.105L19.4,0ZM0,0" transform="translate(795.614 2099.194)" fill="#ffcd00"/>
    <path id="Path_1046" data-name="Path 1046" d="M298.68,384H272v7.276h26.68a2.426,2.426,0,0,0,2.425-2.425v-2.425A2.425,2.425,0,0,0,298.68,384ZM275.638,387.638ZM280.489,387.638ZM285.34,387.638ZM290.191,387.638ZM295.042,387.638Zm0,0" transform="translate(564.847 1773.405)" fill="#5eac24"/>
    <path id="Path_1047" data-name="Path 1047" d="M240,392v4.851h4.851V392Zm0,0" transform="translate(591.996 1766.617)" fill="#5eac24"/>
    <path id="Path_1048" data-name="Path 1048" d="M0,393.213v2.425l7.276,1.213V392Zm0,0" transform="translate(795.614 1766.617)" fill="#e0e0e2"/>
    <path id="Path_1049" data-name="Path 1049" d="M148.984,130.264l-2.789,2.789,3.432,3.432,2.789-2.789a9.475,9.475,0,0,0,2.5,1.043v3.941h4.851v-3.941a9.476,9.476,0,0,0,2.5-1.043l2.789,2.789,3.432-3.432-2.789-2.789a9.476,9.476,0,0,0,1.043-2.5h3.941v-4.851h-3.941a9.476,9.476,0,0,0-1.043-2.5l2.789-2.789-3.432-3.432-2.789,2.789a9.477,9.477,0,0,0-2.5-1.043V112h-4.851v3.941a9.477,9.477,0,0,0-2.5,1.043l-2.789-2.789-3.432,3.432,2.789,2.789a9.477,9.477,0,0,0-1.043,2.5H144v4.851h3.941A9.477,9.477,0,0,0,148.984,130.264Zm8.356-9.775a4.851,4.851,0,1,1-4.851,4.851A4.851,4.851,0,0,1,157.34,120.489Zm0,0" transform="translate(673.443 2004.172)" fill="#006df0"/>
    <path id="Path_1050" data-name="Path 1050" d="M209.7,172.851A4.851,4.851,0,1,1,204.851,168,4.851,4.851,0,0,1,209.7,172.851Zm0,0" transform="translate(625.932 1956.661)" fill="#ffda44"/>
    <path id="Path_1051" data-name="Path 1051" d="M208,312h2.425v2.425H208Zm0,0" transform="translate(619.145 1834.49)" fill="#d9ccbc"/>
    <path id="Path_1052" data-name="Path 1052" d="M240,312h2.425v2.425H240Zm0,0" transform="translate(591.996 1834.49)" fill="#d9ccbc"/>
    <path id="Path_1053" data-name="Path 1053" d="M272,312h2.426v2.425H272Zm0,0" transform="translate(564.847 1834.49)" fill="#d9ccbc"/>
    <path id="Path_1054" data-name="Path 1054" d="M304,312h2.425v2.425H304Zm0,0" transform="translate(537.698 1834.49)" fill="#d9ccbc"/>
    <path id="Path_1055" data-name="Path 1055" d="M336,312h2.425v2.425H336Zm0,0" transform="translate(510.549 1834.49)" fill="#d9ccbc"/>
    <path id="Path_1056" data-name="Path 1056" d="M368,312h2.425v2.425H368Zm0,0" transform="translate(483.4 1834.49)" fill="#d9ccbc"/>
    <path id="Path_1057" data-name="Path 1057" d="M400,312h2.425v2.425H400Zm0,0" transform="translate(456.251 1834.49)" fill="#d9ccbc"/>
    <path id="Path_1058" data-name="Path 1058" d="M432,312h2.425v2.425H432Zm0,0" transform="translate(429.101 1834.49)" fill="#d9ccbc"/>
    <path id="Path_1059" data-name="Path 1059" d="M176,312h2.425v2.425H176Zm0,0" transform="translate(646.294 1834.49)" fill="#d9ccbc"/>
    <path id="Path_1060" data-name="Path 1060" d="M144,312h2.425v2.425H144Zm0,0" transform="translate(673.443 1834.49)" fill="#d9ccbc"/>
    <path id="Path_1061" data-name="Path 1061" d="M112,312h2.425v2.425H112Zm0,0" transform="translate(700.593 1834.49)" fill="#d9ccbc"/>
    <path id="Path_1062" data-name="Path 1062" d="M80,312h2.425v2.425H80Zm0,0" transform="translate(727.742 1834.49)" fill="#d9ccbc"/>
    <path id="Path_1063" data-name="Path 1063" d="M48,312h2.425v2.425H48Zm0,0" transform="translate(754.891 1834.49)" fill="#d9ccbc"/>
    <path id="Path_1064" data-name="Path 1064" d="M16,312h2.425v2.425H16Zm0,0" transform="translate(782.04 1834.49)" fill="#d9ccbc"/>
    <path id="Path_1065" data-name="Path 1065" d="M208,72h2.425v2.425H208Zm0,0" transform="translate(619.145 2038.108)" fill="#d9ccbc"/>
    <path id="Path_1066" data-name="Path 1066" d="M240,72h2.425v2.425H240Zm0,0" transform="translate(591.996 2038.108)" fill="#d9ccbc"/>
    <path id="Path_1067" data-name="Path 1067" d="M272,72h2.426v2.425H272Zm0,0" transform="translate(564.847 2038.108)" fill="#d9ccbc"/>
    <path id="Path_1068" data-name="Path 1068" d="M304,72h2.425v2.425H304Zm0,0" transform="translate(537.698 2038.108)" fill="#d9ccbc"/>
    <path id="Path_1069" data-name="Path 1069" d="M336,72h2.425v2.425H336Zm0,0" transform="translate(510.549 2038.108)" fill="#d9ccbc"/>
    <path id="Path_1070" data-name="Path 1070" d="M368,72h2.425v2.425H368Zm0,0" transform="translate(483.4 2038.108)" fill="#d9ccbc"/>
    <path id="Path_1071" data-name="Path 1071" d="M400,72h2.425v2.425H400Zm0,0" transform="translate(456.251 2038.108)" fill="#d9ccbc"/>
    <path id="Path_1072" data-name="Path 1072" d="M432,72h2.425v2.425H432Zm0,0" transform="translate(429.101 2038.108)" fill="#d9ccbc"/>
    <path id="Path_1073" data-name="Path 1073" d="M176,72h2.425v2.425H176Zm0,0" transform="translate(646.294 2038.108)" fill="#d9ccbc"/>
    <path id="Path_1074" data-name="Path 1074" d="M144,72h2.425v2.425H144Zm0,0" transform="translate(673.443 2038.108)" fill="#d9ccbc"/>
    <path id="Path_1075" data-name="Path 1075" d="M112,72h2.425v2.425H112Zm0,0" transform="translate(700.593 2038.108)" fill="#d9ccbc"/>
    <path id="Path_1076" data-name="Path 1076" d="M80,72h2.425v2.425H80Zm0,0" transform="translate(727.742 2038.108)" fill="#d9ccbc"/>
    <path id="Path_1077" data-name="Path 1077" d="M48,72h2.425v2.425H48Zm0,0" transform="translate(754.891 2038.108)" fill="#d9ccbc"/>
    <path id="Path_1078" data-name="Path 1078" d="M16,72h2.425v2.425H16Zm0,0" transform="translate(782.04 2038.108)" fill="#d9ccbc"/>
    <path id="Path_1079" data-name="Path 1079" d="M48,400H77.105v2.425H48Zm0,0" transform="translate(754.891 1759.83)" fill="#c6c5ca"/>
    <path id="Path_1080" data-name="Path 1080" d="M392,400h2.425v2.425H392Zm0,0" transform="translate(463.038 1759.83)" fill="#a4e276"/>
    <path id="Path_1081" data-name="Path 1081" d="M424,400h2.425v2.425H424Zm0,0" transform="translate(435.889 1759.83)" fill="#a4e276"/>
    <path id="Path_1082" data-name="Path 1082" d="M360,400h2.425v2.425H360Zm0,0" transform="translate(490.187 1759.83)" fill="#a4e276"/>
    <path id="Path_1083" data-name="Path 1083" d="M328,400h2.425v2.425H328Zm0,0" transform="translate(517.336 1759.83)" fill="#a4e276"/>
    <path id="Path_1084" data-name="Path 1084" d="M296,400h2.425v2.425H296Zm0,0" transform="translate(544.485 1759.83)" fill="#a4e276"/>
  </g>
</svg>
