<svg xmlns="http://www.w3.org/2000/svg" width="70.365" height="70.355" viewBox="0 0 70.365 70.355">
  <g id="Group_23" data-name="Group 23" transform="translate(-789.321 -2400.83)">
    <path id="Path_952" data-name="Path 952" d="M35.183,67.941V60.659H4.848V7.282H46.1v7.282h4.848V4.848A4.847,4.847,0,0,0,46.1,0H4.848A4.847,4.847,0,0,0,0,4.848V65.507a4.847,4.847,0,0,0,4.848,4.848H37.607A2.409,2.409,0,0,1,35.183,67.941ZM31.541,3.641ZM26.693,3.641ZM21.836,3.641ZM19.412,65.517ZM24.26,65.517ZM29.117,65.517Zm0,0" transform="translate(789.321 2400.83)" fill="#ffcd00"/>
    <path id="Path_953" data-name="Path 953" d="M114.491,84.472H84.157A2.423,2.423,0,0,0,81.733,86.9v16.988H69.6v-3.641L58.68,108.731,69.6,117.221v.01L58.68,108.741,69.6,100.252v3.641h12.13V86.905a2.423,2.423,0,0,1,2.424-2.424h8.489V77.2H51.4v53.378H81.733V113.589H96.287v3.641l10.923-8.489-10.923-8.489v0l10.923,8.489L96.287,117.23v-3.641H81.733v24.26a2.423,2.423,0,0,0,2.424,2.424h30.334a2.423,2.423,0,0,0,2.424-2.424V86.905A2.431,2.431,0,0,0,114.491,84.472ZM64.745,108.741ZM69.6,108.741ZM74.451,108.741ZM79.309,108.741ZM101.145,108.741ZM96.287,108.741ZM84.157,108.741ZM89.014,108.741ZM96.287,136.641ZM99.928,136.641ZM112.067,133h0V89.329h-.01V133Zm0,0" transform="translate(742.771 2330.913)" fill="#ebe5dd"/>
    <path id="Path_954" data-name="Path 954" d="M377.848,173.8V159.246h25.477v43.672H377.848V183.506H373v24.26a2.423,2.423,0,0,0,2.424,2.424h30.334a2.423,2.423,0,0,0,2.424-2.424V156.822a2.423,2.423,0,0,0-2.424-2.424H375.424A2.423,2.423,0,0,0,373,156.822V173.81h4.848Zm0,0" transform="translate(451.504 2260.995)" fill="#ffde55"/>
    <path id="Path_955" data-name="Path 955" d="M450.2,398.7h2.424v2.424H450.2Zm0,0" transform="translate(381.586 2039.738)" fill="#006df0"/>
    <path id="Path_956" data-name="Path 956" d="M501.6,398.7h2.424v2.424H501.6Zm0,0" transform="translate(335.032 2039.738)" fill="#006df0"/>
    <path id="Path_957" data-name="Path 957" d="M398.7,398.7h2.424v2.424H398.7Zm0,0" transform="translate(428.229 2039.738)" fill="#006df0"/>
    <path id="Path_958" data-name="Path 958" d="M347.3,398.7h2.424v2.424H347.3Zm0,0" transform="translate(474.779 2039.738)" fill="#006df0"/>
    <path id="Path_959" data-name="Path 959" d="M295.8,398.7h2.424v2.424H295.8Zm0,0" transform="translate(521.421 2039.738)" fill="#006df0"/>
    <path id="Path_960" data-name="Path 960" d="M244.4,398.7h2.424v2.424H244.4Zm0,0" transform="translate(567.975 2039.738)" fill="#006df0"/>
    <path id="Path_961" data-name="Path 961" d="M192.9,398.7h2.424v2.424H192.9Zm0,0" transform="translate(614.618 2039.738)" fill="#006df0"/>
    <path id="Path_962" data-name="Path 962" d="M308.7,681.7h2.424v2.424H308.7Zm0,0" transform="translate(509.739 1783.431)" fill="#006df0"/>
    <path id="Path_963" data-name="Path 963" d="M257.2,681.7h2.424v2.424H257.2Zm0,0" transform="translate(556.382 1783.431)" fill="#006df0"/>
    <path id="Path_964" data-name="Path 964" d="M205.8,681.7h2.424v2.424H205.8Zm0,0" transform="translate(602.932 1783.431)" fill="#006df0"/>
    <path id="Path_965" data-name="Path 965" d="M565.9,694.6h2.424v2.424H565.9Zm0,0" transform="translate(276.8 1771.745)" fill="#006df0"/>
    <path id="Path_966" data-name="Path 966" d="M527.3,694.6h2.424v2.424H527.3Zm0,0" transform="translate(311.757 1771.745)" fill="#006df0"/>
    <path id="Path_967" data-name="Path 967" d="M553.1,398.7h2.424v2.424H553.1Zm0,0" transform="translate(288.389 2039.738)" fill="#006df0"/>
    <path id="Path_968" data-name="Path 968" d="M308.7,25.7h2.424v2.424H308.7Zm0,0" transform="translate(509.739 2377.555)" fill="#006df0"/>
    <path id="Path_969" data-name="Path 969" d="M257.2,25.7h2.424v2.424H257.2Zm0,0" transform="translate(556.382 2377.555)" fill="#006df0"/>
    <path id="Path_970" data-name="Path 970" d="M205.8,25.7h2.424v2.424H205.8Zm0,0" transform="translate(602.932 2377.555)" fill="#006df0"/>
    <path id="Path_971" data-name="Path 971" d="M130.3,300.113h-8.5V295.2l-14.1,10.979,14.1,10.969v-4.9h4.858v-2.424h-7.282v2.368l-7.725-6.008,7.725-6.009v2.368h18.195v-2.424Zm0,0" transform="translate(691.781 2133.475)" fill="#006df0"/>
    <path id="Path_972" data-name="Path 972" d="M386.347,312.243v4.9l14.111-10.969L386.347,295.2v4.914h-2.424v2.424h4.848V300.17l7.734,6.009-7.734,6.008v-2.368H373v2.424Zm0,0" transform="translate(451.504 2133.475)" fill="#006df0"/>
  </g>
</svg>
